<svg xmlns="http://www.w3.org/2000/svg" viewBox="0 0 23 23"><path d="M1 1h7v7h-7zM9 1h5v1h-1v1h1v1h-1v1h1v4h-1v-2h-1v-1h-1v-1h-1v-1h-1v-1h3v-1h-3zM15 1h7v7h-7zM2 2v5h5v-5zM16 2v5h5v-5zM3 3h3v3h-3zM17 3h3v3h-3zM9 6h1v2h-1zM11 7h1v3h-2v-1h1zM1 9h1v2h-1zM3 9h1v1h1v1h-2zM7 9h2v1h-2zM16 9h1v1h-1zM19 9h1v1h-1zM21 9h1v7h-1v-1h-1v-1h1v-1h-1v-1h1v-1h-1v-1h1zM6 10h1v1h1v1h-1v1h1v1h-2v-2h-1v-1h1zM9 10h1v2h-1zM14 10h2v1h-2zM17 10h2v1h-1v1h-1zM2 11h1v3h-1v-1h-1v-1h1zM11 11h3v1h-1v1h-1v-1h-1zM4 12h1v1h-1zM14 12h1v2h1v1h-2v2h-2v-1h1v-2h1zM18 12h1v1h-1zM9 13h3v1h-2v1h1v1h-2zM16 13h1v1h-1zM17 14h2v1h-1v1h-1zM1 15h7v7h-7zM2 16v5h5v-5zM16 16h1v1h2v1h1v1h-1v2h-1v-1h-1v-2h-1zM20 16h1v1h-1zM3 17h3v3h-3zM10 17h1v2h-1zM14 17h1v1h1v1h-1v3h-3v-1h-1v-2h1v1h1v-2h1zM9 19h1v1h-1zM20 19h2v1h-2zM16 20h1v2h-1zM9 21h2v1h-2zM21 21h1v1h-1z"/></svg>